<?xml version="1.0" encoding="UTF-8" standalone="no"?>
<!-- Created with Inkscape (http://www.inkscape.org/) -->

<svg
   width="108.5167mm"
   height="96.929489mm"
   viewBox="0 0 108.5167 96.929489"
   version="1.1"
   id="svg1"
   inkscape:version="1.4 (1:1.4+202410161351+e7c3feb100)"
   sodipodi:docname="pot8o.svg"
   inkscape:export-filename="pot8o.png"
   inkscape:export-xdpi="109.47"
   inkscape:export-ydpi="109.47"
   xmlns:inkscape="http://www.inkscape.org/namespaces/inkscape"
   xmlns:sodipodi="http://sodipodi.sourceforge.net/DTD/sodipodi-0.dtd"
   xmlns="http://www.w3.org/2000/svg"
   xmlns:svg="http://www.w3.org/2000/svg">
  <sodipodi:namedview
     id="namedview1"
     pagecolor="#ffffff"
     bordercolor="#000000"
     borderopacity="0.25"
     inkscape:showpageshadow="2"
     inkscape:pageopacity="0.0"
     inkscape:pagecheckerboard="0"
     inkscape:deskcolor="#d1d1d1"
     inkscape:document-units="mm"
     inkscape:zoom="0.692921"
     inkscape:cx="312.44543"
     inkscape:cy="409.85913"
     inkscape:window-width="1534"
     inkscape:window-height="831"
     inkscape:window-x="66"
     inkscape:window-y="32"
     inkscape:window-maximized="1"
     inkscape:current-layer="layer1">
    <inkscape:page
       x="-1.3794241e-13"
       y="0"
       width="108.51669"
       height="96.929489"
       id="page2"
       margin="0"
       bleed="0" />
  </sodipodi:namedview>
  <defs
     id="defs1" />
  <g
     inkscape:label="Layer 1"
     inkscape:groupmode="layer"
     id="layer1"
     style="display:inline"
     transform="translate(-86.593893,-49.166131)">
    <path
       d="m 148.00639,69.026343 a 17.990381,17.990381 0 0 0 -9.65633,3.130069 L 90.01634,110.64242 a 11.933775,11.933775 0 0 0 -1.571262,13.96187 11.933775,11.933775 0 0 0 12.805642,5.78112 11.933775,11.933775 0 0 0 9.43267,-10.4128 c 0,0 5.84673,-14.89518 33.13863,-15.59145 a 17.990381,17.990381 0 0 0 20.4734,-8.760002 17.990381,17.990381 0 0 0 -3.72799,-21.954067 17.990381,17.990381 0 0 0 -12.56104,-4.640748 z m -7.97862,7.314999 a 3.033262,3.033262 0 0 1 3.03325,3.033248 3.033262,3.033262 0 0 1 -3.03325,3.033247 3.033262,3.033262 0 0 1 -3.03324,-3.033247 3.033262,3.033262 0 0 1 3.03324,-3.033248 z"
       style="stroke:#000000;stroke-width:0.579627"
       id="path18"
       inkscape:export-filename="pot8o.png"
       inkscape:export-xdpi="96"
       inkscape:export-ydpi="96" />
    <path
       d="m 140.02755,76.341142 a 3.033262,3.033262 0 0 0 -3.03289,3.033407 3.033262,3.033262 0 0 0 3.03289,3.033407 3.033262,3.033262 0 0 0 3.03341,-3.033407 3.033262,3.033262 0 0 0 -3.03341,-3.033407 z"
       style="fill:#4063d8;fill-opacity:1;stroke:#000000;stroke-width:0.579627"
       id="path46" />
    <path
       d="m 137.52709,51.367564 c 0,0 -6.23391,12.662137 4.60043,19.295878 6.60954,-3.93426 -4.60043,-19.295878 -4.60043,-19.295878 z"
       style="fill:#000000;fill-opacity:1;stroke:#000000;stroke-width:0.579627"
       id="path20" />
    <path
       d="m 148.35172,49.718364 c 0,0 -9.20796,10.696014 -0.38162,19.833035 7.38453,-2.152478 0.38162,-19.833035 0.38162,-19.833035 z"
       style="fill:#000000;fill-opacity:1;stroke:#000000;stroke-width:0.579627"
       id="path20-2"
       inkscape:transform-center-x="0.59512333"
       inkscape:transform-center-y="2.7750763" />
  </g>
  <g
     inkscape:groupmode="layer"
     id="layer2"
     inkscape:label="Layer 2"
     transform="translate(-86.593893,-49.166131)">
    <path
       d="m 148.00639,69.026343 a 37.715282,36.11887 0 0 1 0.96532,-0.06615 27.035675,27.035675 0 0 1 2.34456,-0.258383 31.904936,31.904936 0 0 0 -3.30988,0.324528 z"
       style="fill:#5538f0;fill-opacity:1;stroke:#000000;stroke-width:0.781947"
       id="path41" />
    <path
       d="m 157.65133,68.727467 a 34.045433,34.045433 0 0 1 30.8417,33.806213 34.045433,34.045433 0 0 1 -34.04553,34.04497 34.045433,34.045433 0 0 1 -31.11852,-20.52767 h -7.89378 a 40.245594,38.542079 0 0 0 39.0123,29.62744 40.245594,38.542079 0 0 0 40.24586,-38.54248 40.245594,38.542079 0 0 0 -37.04203,-38.408473 z"
       style="fill:#9558b2;fill-opacity:1;stroke:#000000;stroke-width:0.834408"
       id="path45" />
    <path
       d="m 149.26213,68.831523 h 0.2434 a 27.035675,27.035675 0 0 1 1.81074,-0.219108 31.904936,31.904936 0 0 0 -2.05414,0.219108 z"
       style="fill:#92f038;stroke:#000000;stroke-width:0.583027"
       id="path44" />
    <path
       d="m 156.02019,68.622143 a 28.849494,28.849494 0 0 1 27.27668,28.806358 28.849494,28.849494 0 0 1 -28.84937,28.849369 28.849494,28.849494 0 0 1 -21.85774,-10.22689 h -9.30545 a 34.045433,34.045433 0 0 0 31.16319,20.62307 34.045433,34.045433 0 0 0 34.04553,-34.04498 34.045433,34.045433 0 0 0 -32.47284,-34.006927 z"
       style="fill:#389826;fill-opacity:1;stroke:#000000;stroke-width:0.622142"
       id="path43" />
    <path
       d="m 153.435,68.601344 a 27.035675,27.035675 0 0 1 1.15807,0.161747 37.715282,36.11887 0 0 1 0.37052,0.02636 31.904936,31.904936 0 0 0 -1.52859,-0.188102 z"
       style="fill:#5538f0;fill-opacity:1;stroke:#000000;stroke-width:0.583027"
       id="path39" />
    <path
       d="m 154.4475,68.617732 a 28.849494,28.849494 0 0 0 -2.52557,0.248696 h 0.11691 a 23.713727,23.713727 0 0 1 2.40866,-0.237116 23.713727,23.713727 0 0 1 23.71387,23.713865 23.713727,23.713727 0 0 1 -23.71387,23.713863 23.713727,23.713727 0 0 1 -0.52662,-0.0518 v 0.0458 H 132.55723 A 28.849494,28.849494 0 0 0 154.4475,126.31703 28.849494,28.849494 0 0 0 183.29687,97.467657 28.849494,28.849494 0 0 0 154.4475,68.617736 Z"
       style="fill:#cb2233;fill-opacity:1;stroke:#000000;stroke-width:0.612947"
       id="path42" />
    <path
       d="m 151.96119,68.598452 a 27.035675,27.035675 0 0 0 -0.64492,0.05064 31.904936,31.904936 0 0 1 0.64492,-0.04599 31.904936,31.904936 0 0 1 1.47381,0.03617 27.035675,27.035675 0 0 0 -1.47381,-0.04082 z"
       style="fill:#92f038;fill-opacity:1;stroke:#000000;stroke-width:0.57441"
       id="path37" />
  </g>
</svg>
