DBRep_DrawableShape

CASCADE Topology V1, (c) Matra-Datavision
Locations 36
1
              1               0               0               0 
              0               1               0               0 
              0               0               1               0 
1
              1               0               0               0 
              0               1               0               0 
              0               0               1               0 
1
              1               0               0               0 
              0               1               0               0 
              0               0               1               0 
1
              1               0               0               0 
              0               1               0               0 
              0               0               1               0 
2  1 1 2 1 3 -1 4 1 0
1
              1               0               0               0 
              0               1               0               0 
              0               0               1             100 
2  1 1 2 1 3 -1 6 1 4 1 0
2  1 1 2 1 3 -1 0
2  1 1 2 1 3 -1 6 1 0
1
              1               0               0               0 
              0               1               0               0 
              0               0               1               0 
1
              1               0               0               0 
              0               1               0               0 
              0               0               1               0 
2  10 1 11 -1 1 -1 0
1
              1               0               0               0 
              0               1               0               0 
              0               0               1              10 
2  13 -1 10 1 11 -1 1 -1 0
1
              1               0               0               0 
              0               1               0               0 
              0               0               1               0 
1
              1               0               0               0 
              0               1               0               0 
              0               0               1               0 
2  15 1 16 -1 1 -1 0
1
              1               0               0               0 
              0               1               0               0 
              0               0               1              10 
2  18 -1 15 1 16 -1 1 -1 0
1
              1               0               0               0 
              0               1               0               0 
              0               0               1               0 
1
              1               0               0               0 
              0               1               0               0 
              0               0               1               0 
2  20 1 21 -1 1 -1 0
1
              1               0               0               0 
              0               1               0               0 
              0               0               1              10 
2  23 -1 20 1 21 -1 1 -1 0
1
              1               0               0               0 
              0               1               0               0 
              0               0               1               0 
1
              1               0               0               0 
              0               1               0               0 
              0               0               1               0 
2  25 1 26 -1 1 -1 0
1
              1               0               0               0 
              0               1               0               0 
              0               0               1             100 
2  28 -1 25 1 26 -1 1 -1 0
2  3 1 2 -1 1 -1 0
2  6 -1 3 1 2 -1 1 -1 0
2  3 -1 4 1 0
2  1 1 2 1 0
2  3 -1 6 1 4 1 0
2  3 -1 0
2  3 -1 6 1 0
Curve2ds 12
1 0 0 0 -1 
1 6.2831853071795862 0 0 -1 
1 0 0 1 0 
1 0 -10 1 0 
1 0 0 1 0 
1 0 -10 1 0 
1 0 0 1 0 
1 0 -10 1 0 
1 0 0 1 0 
1 0 -100 1 0 
1 0 0 1 0 
1 0 -100 1 0 
Curves 10
1 -50 50 0 0 0 1 
1 -50 -50 0 0 0 1 
1 -50 50 0 0 -1 0 
1 50 -50 0 0 0 1 
1 -50 -50 0 1 0 0 
1 50 50 0 0 0 1 
1 50 -50 0 0 1 0 
1 50 50 0 -1 0 0 
1 5 0 0 0 0 1 
2 0 0 0 0 0 1 1 0 -0 -0 1 0 5
Polygon3D 0
PolygonOnTriangulations 0
Surfaces 10
2 0 0 0 -0 -0 -1 1 0 0 -0 1 -0 5
2 0 0 0 -0 -0 -1 1 0 0 -0 1 -0 5
2 0 0 0 -0 -0 -1 1 0 0 -0 1 -0 5
2 0 0 0 -0 -0 -1 1 0 0 -0 1 -0 5
2 0 0 0 -0 -0 -1 1 0 0 -0 1 -0 5
1 -50 50 0 1 0 -0 0 -1 0 0 -0 -1 
1 -50 -50 0 0 1 0 1 0 0 0 0 -1 
1 50 -50 0 -1 0 0 0 1 0 0 0 -1 
1 50 50 0 0 -1 0 -1 0 0 -0 -0 -1 
1 -1.6680160208050076e-17 2.091169206181968e-17 0 0 0 1 1 0 -0 -0 1 0 
Triangulations 0

TShapes 31
Ve
1e-07
-50 50 0
0 0

0101101
*
Ve
1e-07
-50 -50 0
0 0

0101101
*
Ve
1e-07
50 -50 0
0 0

0101101
*
Ve
1e-07
50 50 0
0 0

0101101
*
Ve
1e-07
5 0 0
0 0

0101101
*
Ed
 1e-07 1 1 0
1  1 0 0 100
0

0101000
+31 8 -31 9 *
Ed
 1e-07 1 1 0
1  2 0 0 100
0

0101000
+30 8 -30 9 *
Ed
 1e-07 1 1 0
1  3 0 0 100
0

0101000
+31 0 -30 0 *
Ed
 1e-07 1 1 0
1  4 0 0 100
0

0101000
+29 8 -29 9 *
Ed
 1e-07 1 1 0
1  5 0 0 100
0

0101000
+30 0 -29 0 *
Ed
 1e-07 1 1 0
1  6 0 0 100
0

0101000
+28 8 -28 9 *
Ed
 1e-07 1 1 0
1  7 0 0 100
0

0101000
+29 0 -28 0 *
Ed
 1e-07 1 1 0
1  8 0 0 100
0

0101000
+28 0 -31 0 *
Ed
 1e-07 1 1 0
1  9 0 0 100
3  1 2CN 1 0 0 100
0

0101000
+27 8 -27 9 *
Ed
 1e-07 1 1 0
1  10 0 0 6.28318530717959
2  3 2 12 0 6.28318530717959
2  4 2 14 0 6.28318530717959
2  5 3 17 0 6.28318530717959
2  6 3 19 0 6.28318530717959
2  7 4 22 0 6.28318530717959
2  8 4 24 0 6.28318530717959
2  9 5 27 0 6.28318530717959
2  10 5 29 0 6.28318530717959
2  11 1 30 0 6.28318530717959
2  12 1 31 0 6.28318530717959
0

0101100
+27 0 -27 0 *
Wi

0101100
+26 0 -25 0 -24 8 +24 9 *
Wi

0101100
+25 0 -23 0 -22 8 +22 9 *
Wi

0101100
+23 0 -21 0 -20 8 +20 9 *
Wi

0101100
+21 0 -26 0 -19 8 +19 9 *
Wi

0101100
+18 0 -18 0 -17 8 +17 9 *
Wi

0101100
+24 0 +22 0 +20 0 +19 0 *
Wi

0101100
+17 0 *
Fa
0  1e-07 6 0

0111000
+16 0 *
Fa
0  1e-07 7 0

0111000
+15 0 *
Fa
0  1e-07 8 0

0111000
+14 0 *
Fa
0  1e-07 9 0

0111000
+13 0 *
Fa
0  1e-07 1 0

0111000
+12 0 *
Fa
0  1e-07 10 0

0111000
+11 33 -10 33 *
Sh

0101100
+9 0 +8 0 +7 0 +6 0 -5 0 +4 35 -4 36 *
So

0100000
-3 0 *
Co

1100000
-31 5 +31 7 +30 5 -30 7 +29 5 -29 7 +28 5 -28 7 +27 5 -27 7 
-26 4 +25 4 +24 5 -24 7 +23 4 +22 5 -22 7 +21 4 +20 5 -20 7 
+19 5 -19 7 +18 4 -17 5 +17 7 -16 4 -15 4 -14 4 -13 4 +12 4 
-11 5 +10 5 +11 7 -10 7 -9 4 -8 4 -7 4 -6 4 +5 4 -4 32 
+4 34 -3 4 +2 4 *

+1 0 